<?xml version="1.0" encoding="UTF-8"?>
<svg width="24px" height="24px" viewBox="0 0 24 24" version="1.1" xmlns="http://www.w3.org/2000/svg" xmlns:xlink="http://www.w3.org/1999/xlink">
    <!-- Generator: Sketch 41.1 (35376) - http://www.bohemiancoding.com/sketch -->
    <title>view</title>
    <desc>Created with Sketch.</desc>
    <defs></defs>
    <g id="RAP" stroke="none" stroke-width="1" fill="none" fill-rule="evenodd">
        <g id="Desktop" transform="translate(-48.000000, -355.000000)" fill="#D83D00">
            <g id="view" transform="translate(48.000000, 355.000000)">
                <g id="Layer_1">
                    <g id="Group">
                        <path d="M6.21844898,0.0259591837 L1.176,0.0259591837 C0.711673469,0.0259591837 0.335020408,0.403102041 0.335020408,0.866938776 L0.335020408,5.90938776 C0.335020408,6.37322449 0.711673469,6.74987755 1.176,6.74987755 L6.21844898,6.74987755 C6.68228571,6.74987755 7.05844898,6.37322449 7.05844898,5.90938776 L7.05844898,0.866938776 C7.05844898,0.403102041 6.68277551,0.0259591837 6.21844898,0.0259591837 Z M5.37746939,5.06840816 L2.01697959,5.06840816 L2.01697959,1.70791837 L5.37746939,1.70791837 L5.37746939,5.06840816 Z" id="Shape"></path>
                        <path d="M6.21844898,8.22906122 L1.176,8.22906122 C0.711673469,8.22906122 0.335020408,8.60620408 0.335020408,9.07004082 L0.335020408,14.1124898 C0.335020408,14.5763265 0.711673469,14.9524898 1.176,14.9524898 L6.21844898,14.9524898 C6.68228571,14.9524898 7.05844898,14.5763265 7.05844898,14.1124898 L7.05844898,9.07004082 C7.05844898,8.60620408 6.68277551,8.22906122 6.21844898,8.22906122 Z M5.37746939,13.272 L2.01697959,13.272 L2.01697959,9.91102041 L5.37746939,9.91102041 L5.37746939,13.272 Z" id="Shape"></path>
                        <path d="M6.21844898,16.4326531 L1.176,16.4326531 C0.711673469,16.4326531 0.335020408,16.8097959 0.335020408,17.2736327 L0.335020408,22.315102 C0.335020408,22.7789388 0.711673469,23.1560816 1.176,23.1560816 L6.21844898,23.1560816 C6.68228571,23.1560816 7.05844898,22.7789388 7.05844898,22.315102 L7.05844898,17.2736327 C7.05844898,16.8093061 6.68277551,16.4326531 6.21844898,16.4326531 Z M5.37746939,21.475102 L2.01697959,21.475102 L2.01697959,18.1136327 L5.37746939,18.1136327 L5.37746939,21.475102 Z" id="Shape"></path>
                        <path d="M14.6233469,0.0259591837 L9.58138776,0.0259591837 C9.11755102,0.0259591837 8.74089796,0.403102041 8.74089796,0.866938776 L8.74089796,5.90938776 C8.74089796,6.37322449 9.11755102,6.74987755 9.58138776,6.74987755 L14.6238367,6.74987755 C15.0876735,6.74987755 15.4643265,6.37322449 15.4643265,5.90938776 L15.4643265,0.866938776 C15.4638367,0.403102041 15.0876735,0.0259591837 14.6233469,0.0259591837 Z M13.7833469,5.06840816 L10.4223673,5.06840816 L10.4223673,1.70791837 L13.7833469,1.70791837 L13.7833469,5.06840816 Z" id="Shape"></path>
                        <path d="M14.6233469,8.22906122 L9.58138776,8.22906122 C9.11755102,8.22906122 8.74089796,8.60620408 8.74089796,9.07004082 L8.74089796,14.1124898 C8.74089796,14.5763265 9.11755102,14.9524898 9.58138776,14.9524898 L14.6238367,14.9524898 C15.0876735,14.9524898 15.4643265,14.5763265 15.4643265,14.1124898 L15.4643265,9.07004082 C15.4638367,8.60620408 15.0876735,8.22906122 14.6233469,8.22906122 Z M13.7833469,13.272 L10.4223673,13.272 L10.4223673,9.91102041 L13.7833469,9.91102041 L13.7833469,13.272 Z" id="Shape"></path>
                        <path d="M14.6233469,16.4326531 L9.58138776,16.4326531 C9.11755102,16.4326531 8.74089796,16.8097959 8.74089796,17.2736327 L8.74089796,22.315102 C8.74089796,22.7789388 9.11755102,23.1560816 9.58138776,23.1560816 L14.6238367,23.1560816 C15.0876735,23.1560816 15.4643265,22.7789388 15.4643265,22.315102 L15.4643265,17.2736327 C15.4638367,16.8093061 15.0876735,16.4326531 14.6233469,16.4326531 Z M13.7833469,21.475102 L10.4223673,21.475102 L10.4223673,18.1136327 L13.7833469,18.1136327 L13.7833469,21.475102 Z" id="Shape"></path>
                        <path d="M23.0287347,0.0259591837 L17.9867755,0.0259591837 C17.522449,0.0259591837 17.1462857,0.403102041 17.1462857,0.866938776 L17.1462857,5.90938776 C17.1462857,6.37322449 17.522449,6.74987755 17.9867755,6.74987755 L23.0287347,6.74987755 C23.4930612,6.74987755 23.8702041,6.37322449 23.8702041,5.90938776 L23.8702041,0.866938776 C23.8697143,0.403102041 23.4930612,0.0259591837 23.0287347,0.0259591837 Z M22.1887347,5.06840816 L18.8272653,5.06840816 L18.8272653,1.70791837 L22.1887347,1.70791837 L22.1887347,5.06840816 Z" id="Shape"></path>
                        <path d="M23.0287347,8.22906122 L17.9867755,8.22906122 C17.522449,8.22906122 17.1462857,8.60620408 17.1462857,9.07004082 L17.1462857,14.1124898 C17.1462857,14.5763265 17.522449,14.9524898 17.9867755,14.9524898 L23.0287347,14.9524898 C23.4930612,14.9524898 23.8702041,14.5763265 23.8702041,14.1124898 L23.8702041,9.07004082 C23.8697143,8.60620408 23.4930612,8.22906122 23.0287347,8.22906122 Z M22.1887347,13.272 L18.8272653,13.272 L18.8272653,9.91102041 L22.1887347,9.91102041 L22.1887347,13.272 Z" id="Shape"></path>
                        <path d="M23.0287347,16.4326531 L17.9867755,16.4326531 C17.522449,16.4326531 17.1462857,16.8097959 17.1462857,17.2736327 L17.1462857,22.315102 C17.1462857,22.7789388 17.522449,23.1560816 17.9867755,23.1560816 L23.0287347,23.1560816 C23.4930612,23.1560816 23.8702041,22.7789388 23.8702041,22.315102 L23.8702041,17.2736327 C23.8697143,16.8093061 23.4930612,16.4326531 23.0287347,16.4326531 Z M22.1887347,21.475102 L18.8272653,21.475102 L18.8272653,18.1136327 L22.1887347,18.1136327 L22.1887347,21.475102 Z" id="Shape"></path>
                    </g>
                </g>
            </g>
        </g>
    </g>
</svg>