<?xml version="1.0" encoding="UTF-8"?>
<svg width="20px" height="20px" viewBox="0 0 20 20" version="1.1" xmlns="http://www.w3.org/2000/svg" xmlns:xlink="http://www.w3.org/1999/xlink">
    <!-- Generator: Sketch 41.1 (35376) - http://www.bohemiancoding.com/sketch -->
    <title>select_date</title>
    <desc>Created with Sketch.</desc>
    <defs></defs>
    <g id="RAP" stroke="none" stroke-width="1" fill="none" fill-rule="evenodd">
        <g id="Desktop" transform="translate(-339.000000, -247.000000)" fill="#333333">
            <g id="Main" transform="translate(329.000000, 118.000000)">
                <g id="Button-group" transform="translate(0.000000, 89.000000)">
                    <g id="From">
                        <g id="select_date" transform="translate(10.000000, 40.000000)">
                            <g id="Group">
                                <path d="M0,1.67142139 L0,20 L19.8758832,20 L19.7868863,1.67142139 L17.0279952,1.66638693 L17.0279952,2.98683762 L14.6547554,2.98683762 L14.6547554,1.66638693 L5.15140832,1.66638693 L5.15140832,2.98683762 L2.77816851,2.98683762 L2.77816851,1.66638693 L0,1.67142139 Z M4.36082812,8.12720257 L1.15695438,8.12720257 L1.15695438,4.93874812 L4.36082812,4.93874812 L4.36082812,8.12720257 Z M7.95724257,8.13777485 L4.75336891,8.13777485 L4.75336891,4.9493204 L7.95724257,4.9493204 L7.95724257,8.13777485 Z M11.5193026,8.13456891 L8.31542891,8.13456891 L8.31542891,4.94611446 L11.5193026,4.94611446 L11.5193026,8.13456891 Z M15.0985398,8.14603624 L11.8946661,8.14603624 L11.8946661,4.95758079 L15.0985398,4.95758079 L15.0985398,8.14603624 Z M18.6827665,8.13433327 L15.4788929,8.13433327 L15.4788929,4.9458798 L18.6827665,4.9458798 L18.6827665,8.13433327 Z M4.37230178,11.704675 L1.1684285,11.704675 L1.1684285,8.5162196 L4.37230178,8.5162196 L4.37230178,11.704675 Z M7.95153861,11.6959444 L4.74766535,11.6959444 L4.74766535,8.50749089 L7.95153861,8.50749089 L7.95153861,11.6959444 Z M11.5128727,11.6964394 L8.30899743,11.6964394 L8.30899743,8.50798396 L11.5128727,8.50798396 L11.5128727,11.6964394 Z M15.1038703,11.7043404 L11.899997,11.7043404 L11.899997,8.51588693 L15.1038703,8.51588693 L15.1038703,11.7043404 Z M4.4003604,15.2988489 L1.19648713,15.2988489 L1.19648713,12.1103935 L4.4003604,12.1103935 L4.4003604,15.2988489 Z M7.96169248,15.288944 L4.75781921,15.288944 L4.75781921,12.1004905 L7.96169248,12.1004905 L7.96169248,15.288944 Z M11.5156083,15.289439 L8.31173505,15.289439 L8.31173505,12.1009836 L11.5156083,12.1009836 L11.5156083,15.289439 Z M15.1066079,15.2899143 L11.9027327,15.2899143 L11.9027327,12.1014608 L15.1066079,12.1014608 L15.1066079,15.2899143 Z M18.6753564,11.6934069 L15.4714832,11.6934069 L15.4714832,8.50495149 L18.6753564,8.50495149 L18.6753564,11.6934069 Z M18.6723327,15.2953299 L15.4684594,15.2953299 L15.4684594,12.1068764 L18.6723327,12.1068764 L18.6723327,15.2953299 Z M4.36738436,18.8305073 L1.16351119,18.8305073 L1.16351119,15.6420519 L4.36738436,15.6420519 L4.36738436,18.8305073 Z M7.95838218,18.8280202 L4.75450891,18.8280202 L4.75450891,15.6395667 L7.95838218,15.6395667 L7.95838218,18.8280202 Z M11.5197162,18.8359232 L8.31584099,18.8359232 L8.31584099,15.6474677 L11.5197162,15.6474677 L11.5197162,18.8359232 Z M15.1107139,18.8363984 L11.9068406,18.8363984 L11.9068406,15.647945 L15.1107139,15.647945 L15.1107139,18.8363984 Z M18.6720459,18.8264974 L15.4681727,18.8264974 L15.4681727,15.638042 L18.6720459,15.638042 L18.6720459,18.8264974 Z" id="Shape"></path>
                                <g transform="translate(2.970297, 0.000000)" id="Shape">
                                    <polygon points="12.085742 0.178926851 13.6720467 0.1937596 13.6720467 2.57152059 12.0997754 2.57152059"></polygon>
                                    <polygon points="0.193712475 0.195708099 1.79032851 0.195708099 1.79545921 2.57152059 0.193522376 2.57152059"></polygon>
                                    <polygon points="3.55914257 5.6225002 10.0375905 13.2732388 6.78780455 12.971138 8.50737782 17.306663 7.3538798 17.7539051 5.72789228 13.4640958 3.53659208 15.655396"></polygon>
                                </g>
                            </g>
                        </g>
                    </g>
                </g>
            </g>
        </g>
    </g>
</svg>