<?xml version="1.0" encoding="UTF-8"?>
<svg width="24px" height="22px" viewBox="0 0 24 22" version="1.1" xmlns="http://www.w3.org/2000/svg" xmlns:xlink="http://www.w3.org/1999/xlink">
    <!-- Generator: Sketch 41.2 (35397) - http://www.bohemiancoding.com/sketch -->
    <title>Layer_1</title>
    <desc>Created with Sketch.</desc>
    <defs></defs>
    <g id="RAP" stroke="none" stroke-width="1" fill="none" fill-rule="evenodd">
        <g id="Desktop" transform="translate(-85.000000, -466.000000)" fill="#9D102D">
            <g id="error" transform="translate(85.000000, 466.000000)">
                <g id="Layer_1">
                    <path d="M23.4648,18.16752 L14.15328,1.76256 C13.69968,0.96288 12.852,0.46992 11.93328,0.46992 C11.0136,0.46992 10.16592,0.96288 9.71232,1.76256 L0.40176,18.16752 C-0.04704,18.95712 -0.04128,19.9272 0.41568,20.71296 C0.87264,21.49776 1.7136,21.9816 2.62224,21.9816 L21.24384,21.9816 C22.15296,21.9816 22.99296,21.49776 23.4504,20.71296 C23.90784,19.9272 23.91264,18.95664 23.4648,18.16752 Z M13.20528,18.9672 C12.89328,19.24464 12.52272,19.38528 12.10512,19.38528 C11.68224,19.38528 11.30832,19.24656 10.99248,18.97296 C10.66992,18.69264 10.50576,18.3 10.50576,17.8056 C10.50576,17.37168 10.66032,16.99728 10.96512,16.69296 C11.26944,16.38912 11.64672,16.23456 12.0864,16.23456 C12.52512,16.23456 12.90528,16.38816 13.21632,16.692 C13.52784,16.9968 13.68624,17.37168 13.68624,17.8056 C13.68576,18.2928 13.524,18.68304 13.20528,18.9672 Z M13.61856,8.40384 L13.21296,13.04928 C13.16736,13.62768 13.06944,14.06352 12.91392,14.38032 C12.74256,14.73072 12.44352,14.91648 12.04848,14.91648 C11.64576,14.91648 11.34912,14.73456 11.19024,14.3904 C11.04912,14.08464 10.95216,13.64064 10.89312,13.03104 L10.59072,8.5104 C10.5336,7.61712 10.50528,6.9936 10.50528,6.60432 C10.50528,6.04176 10.6584,5.59296 10.96032,5.2704 C11.26512,4.94496 11.66976,4.77936 12.16128,4.77936 C12.768,4.77936 13.18272,4.99968 13.39488,5.4336 C13.58976,5.83392 13.6848,6.38688 13.6848,7.12368 C13.68576,7.54128 13.6632,7.97184 13.61856,8.40384 Z" id="Shape"></path>
                </g>
            </g>
        </g>
    </g>
</svg>