<?xml version="1.0" encoding="UTF-8"?>
<svg width="25px" height="25px" viewBox="0 0 25 25" version="1.1" xmlns="http://www.w3.org/2000/svg" xmlns:xlink="http://www.w3.org/1999/xlink">
    <!-- Generator: Sketch 41.1 (35376) - http://www.bohemiancoding.com/sketch -->
    <title>Shape</title>
    <desc>Created with Sketch.</desc>
    <defs></defs>
    <g id="RAP" stroke="none" stroke-width="1" fill="none" fill-rule="evenodd">
        <g id="Desktop" transform="translate(-192.000000, -308.000000)" fill="#D83D00">
            <g id="add" transform="translate(192.000000, 308.000000)">
                <g id="Layer_1">
                    <path d="M12.862058,0.186 C6.23504017,0.186 0.864,5.55655468 0.864,12.183087 C0.864,18.8110759 6.23455468,24.184058 12.862058,24.184058 C19.4895614,24.184058 24.864,18.8115614 24.864,12.183087 C24.864,5.55655468 19.4900469,0.186 12.862058,0.186 Z M18.2442646,13.5905394 L14.2651409,13.5905394 L14.2651409,17.5599531 C14.2651409,18.3386884 13.6407933,18.96692 12.862058,18.96692 C12.0872067,18.96692 11.4589751,18.3382029 11.4589751,17.5599531 L11.4589751,13.5905394 L7.48713388,13.5905394 C6.70936958,13.5905394 6.08453647,12.9598803 6.08453647,12.186 C6.08453647,11.4082357 6.70936958,10.7824316 7.48713388,10.7824316 L11.4589751,10.7824316 L11.4589751,6.8067064 C11.4589751,6.03039859 12.0872067,5.40410899 12.862058,5.40410899 C13.6407933,5.40410899 14.2651409,6.03039859 14.2651409,6.8067064 L14.2651409,10.7824316 L18.2442646,10.7824316 C19.0181449,10.7824316 19.646862,11.4082357 19.646862,12.186 C19.646862,12.9598803 19.0181449,13.5905394 18.2442646,13.5905394 Z" id="Shape"></path>
                </g>
            </g>
        </g>
    </g>
</svg>