<?xml version="1.0" encoding="UTF-8"?>
<svg width="24px" height="23px" viewBox="0 0 24 23" version="1.1" xmlns="http://www.w3.org/2000/svg" xmlns:xlink="http://www.w3.org/1999/xlink">
    <!-- Generator: Sketch 41.2 (35397) - http://www.bohemiancoding.com/sketch -->
    <title>Group</title>
    <desc>Created with Sketch.</desc>
    <defs></defs>
    <g id="RAP" stroke="none" stroke-width="1" fill="none" fill-rule="evenodd">
        <g id="Desktop" transform="translate(-670.000000, -37.000000)" fill="#333333">
            <g id="user" transform="translate(670.000000, 37.000000)">
                <g id="Layer_1">
                    <g id="Group">
                        <path d="M6.38976,8.4288 C6.38976,8.96064 6.79728,9.39216 7.29888,9.39216 C7.30464,9.39216 7.30896,9.39168 7.31472,9.39168 C7.50288,11.93184 9.504,14.47344 11.94768,14.47344 C14.39136,14.47344 16.39248,11.93184 16.58064,9.39168 C16.58592,9.39168 16.59072,9.39216 16.59648,9.39216 C17.09808,9.39216 17.50512,8.96112 17.50512,8.4288 C17.50512,8.03568 17.28384,7.69872 16.96704,7.54896 C17.15088,6.97824 17.25168,6.36768 17.25168,5.7312 C17.25168,2.62416 14.8776,0.10512 11.94768,0.10512 C9.01776,0.10512 6.64368,2.62416 6.64368,5.7312 C6.64368,6.36768 6.74496,6.97824 6.92832,7.54896 C6.61056,7.6992 6.38976,8.03568 6.38976,8.4288 Z" id="Shape"></path>
                        <path d="M23.55936,20.35248 C21.3936,18.24864 18.74928,16.76448 15.90624,16.056 C15.83472,16.01664 15.7536,15.99504 15.6696,15.99504 L15.41184,15.99504 C15.33024,15.99504 15.25008,16.01568 15.17856,16.05408 C14.31984,16.5144 13.1424,16.77888 11.94816,16.77888 C10.75392,16.77888 9.57648,16.5144 8.7168,16.05312 C8.6448,16.01568 8.56464,15.99504 8.48352,15.99504 L8.29584,15.99504 C8.25744,15.99504 8.21952,15.99984 8.18256,16.008 C5.26416,16.69824 2.55216,18.20064 0.33648,20.35248 C0.24048,20.44512 0.18672,20.5728 0.18672,20.70576 L0.18672,22.47312 C0.18672,22.7448 0.408,22.96704 0.68064,22.96704 L23.21616,22.96704 C23.4888,22.96704 23.71008,22.7448 23.71008,22.47312 L23.71008,20.70576 C23.7096,20.5728 23.65488,20.44464 23.55936,20.35248 Z" id="Shape"></path>
                    </g>
                </g>
            </g>
        </g>
    </g>
</svg>