<?xml version="1.0" encoding="UTF-8"?>
<svg width="24px" height="25px" viewBox="0 0 24 25" version="1.1" xmlns="http://www.w3.org/2000/svg" xmlns:xlink="http://www.w3.org/1999/xlink">
    <!-- Generator: Sketch 41.1 (35376) - http://www.bohemiancoding.com/sketch -->
    <title>Shape</title>
    <desc>Created with Sketch.</desc>
    <defs></defs>
    <g id="RAP" stroke="none" stroke-width="1" fill="none" fill-rule="evenodd">
        <g id="Desktop" transform="translate(-200.000000, -483.000000)" fill="#333333">
            <g id="date" transform="translate(200.000000, 482.000000)">
                <g id="Group">
                    <g transform="translate(0.000000, 0.637820)" id="Shape">
                        <path d="M6.29463012,0.36218 C5.97905868,0.36218 5.72320153,0.61803715 5.72320153,0.933608588 L5.72320153,5.79075159 C5.72320153,6.1063516 5.97905868,6.36218018 6.29463012,6.36218018 C6.61023013,6.36218018 6.8660587,6.1063516 6.8660587,5.79075159 L6.8660587,0.933608588 C6.8660587,0.61803715 6.61023013,0.36218 6.29463012,0.36218 L6.29463012,0.36218 Z M17.7232013,0.36218 C17.4076296,0.36218 17.1517736,0.61803715 17.1517736,0.933608588 L17.1517736,5.79075159 C17.1517736,6.1063516 17.4076299,6.36218018 17.7232013,6.36218018 C18.0388013,6.36218018 18.2946299,6.1063516 18.2946299,5.79075159 L18.2946299,0.933608588 C18.2946299,0.61803715 18.0388013,0.36218 17.7232013,0.36218 Z M2.29463,2.07646577 C1.0244871,2.07646577 1.50000005e-06,3.10089437 1.50000005e-06,4.37112298 L1.50000005e-06,9.50503741 L24.0000012,9.50503741 L24.0000012,4.37112298 C24.0000012,3.10089437 22.9754869,2.07646577 21.7053726,2.07646577 L20.0000011,2.07646577 L18.8660582,2.07646577 L18.8660582,4.51398012 C19.2165725,4.82786585 19.4374868,5.28326586 19.4374868,5.79075159 C19.4374868,6.73752305 18.6700582,7.50503736 17.723201,7.50503736 C16.7764876,7.50503736 16.0089161,6.73752305 16.0089161,5.79075159 C16.0089161,5.28326586 16.2299447,4.82786585 16.5803447,4.51398012 L16.5803447,2.07646577 L7.42857301,2.07646577 L7.42857301,4.50503727 C7.7844873,4.81915156 8.00891588,5.278723 8.00891588,5.79075159 C8.00891588,6.73752305 7.24148729,7.50503736 6.29463012,7.50503736 C5.3479158,7.50503736 4.58034435,6.73752305 4.58034435,5.79075159 C4.58034435,5.28778015 4.79783007,4.83649442 5.14285865,4.52289441 L5.14285865,2.07646577 L2.29463,2.07646577 Z M1.50000005e-06,10.6478946 L1.50000005e-06,22.6389578 C1.50000005e-06,23.9091864 1.02445853,24.933615 2.29463,24.933615 L21.7053729,24.933615 C22.9754872,24.933615 24.0000015,23.9091864 24.0000015,22.6389578 L24.0000015,10.6478946 L1.50000005e-06,10.6478946 Z"></path>
                    </g>
                </g>
            </g>
        </g>
    </g>
</svg>